<svg xmlns="http://www.w3.org/2000/svg" viewBox="0 0 768 900" preserveAspectRatio="xMidYMid slice">
  <defs>
    <radialGradient id="bg" x1="0%" y1="0%" x2="100%" y2="100%">
      <stop offset="0%" stop-color="#0B1628"/>
      <stop offset="100%" stop-color="#020617"/>
    </radialGradient>
    <radialGradient id="glow1" cx="30%" cy="0%" r="70%" gradientUnits="userSpaceOnUse">
      <stop offset="0%" stop-color="#1E40AF" stop-opacity="0.45"/>
      <stop offset="60%" stop-color="#1E3A8A" stop-opacity="0.15"/>
      <stop offset="100%" stop-color="#1E3A8A" stop-opacity="0"/>
    </radialGradient>
    <radialGradient id="glow3" cx="50%" cy="100%" r="50%" gradientUnits="userSpaceOnUse">
      <stop offset="0%" stop-color="#0C1A3A" stop-opacity="0.7"/>
      <stop offset="100%" stop-color="#0C1A3A" stop-opacity="0"/>
    </radialGradient>
    <linearGradient id="lineGrad" x1="0%" y1="0%" x2="100%" y2="0%">
      <stop offset="0%" stop-color="#1E40AF" stop-opacity="0"/>
      <stop offset="40%" stop-color="#3B82F6" stop-opacity="0.5"/>
      <stop offset="100%" stop-color="#1E40AF" stop-opacity="0"/>
    </linearGradient>
    <linearGradient id="lineGradV" x1="0%" y1="0%" x2="0%" y2="100%">
      <stop offset="0%" stop-color="#1E40AF" stop-opacity="0"/>
      <stop offset="50%" stop-color="#2563EB" stop-opacity="0.25"/>
      <stop offset="100%" stop-color="#1E40AF" stop-opacity="0"/>
    </linearGradient>
    <pattern id="grid" width="48" height="48" patternUnits="userSpaceOnUse">
      <path d="M 48 0 L 0 0 0 48" fill="none" stroke="#1E293B" stroke-width="0.5" stroke-opacity="0.4"/>
    </pattern>
    <pattern id="dots" width="24" height="24" patternUnits="userSpaceOnUse">
      <circle cx="12" cy="12" r="1" fill="#334155" fill-opacity="0.5"/>
    </pattern>
  </defs>
  <rect width="768" height="900" fill="url(#bg)"/>
  <rect width="768" height="900" fill="url(#grid)"/>
  <rect width="768" height="900" fill="url(#dots)"/>
  <rect width="768" height="900" fill="url(#glow1)"/>
  <rect width="768" height="900" fill="url(#glow3)"/>
  <line x1="0" y1="140" x2="600" y2="140" stroke="url(#lineGrad)" stroke-width="1"/>
  <line x1="100" y1="340" x2="768" y2="340" stroke="url(#lineGrad)" stroke-width="0.5"/>
  <line x1="0" y1="560" x2="500" y2="560" stroke="url(#lineGrad)" stroke-width="0.5"/>
  <line x1="300" y1="760" x2="768" y2="760" stroke="url(#lineGrad)" stroke-width="0.5"/>
  <line x1="200" y1="0" x2="200" y2="560" stroke="url(#lineGradV)" stroke-width="0.5"/>
  <line x1="500" y1="0" x2="500" y2="900" stroke="url(#lineGradV)" stroke-width="0.5"/>
  <circle cx="200" cy="140" r="3" fill="#3B82F6" fill-opacity="0.6"/>
  <circle cx="500" cy="340" r="3" fill="#3B82F6" fill-opacity="0.5"/>
  <circle cx="200" cy="560" r="2" fill="#60A5FA" fill-opacity="0.4"/>
  <circle cx="500" cy="760" r="2" fill="#93C5FD" fill-opacity="0.4"/>
  <rect x="0" y="0" width="4" height="4" fill="#2563EB" fill-opacity="0.7"/>
  <rect x="0" y="0" width="1" height="30" fill="#2563EB" fill-opacity="0.3"/>
  <rect x="0" y="0" width="30" height="1" fill="#2563EB" fill-opacity="0.3"/>
  <rect x="764" y="0" width="4" height="4" fill="#2563EB" fill-opacity="0.7"/>
  <rect x="764" y="0" width="1" height="30" fill="#2563EB" fill-opacity="0.3"/>
  <rect x="738" y="0" width="30" height="1" fill="#2563EB" fill-opacity="0.3"/>
  <rect x="0" y="896" width="4" height="4" fill="#2563EB" fill-opacity="0.7"/>
  <rect x="0" y="870" width="1" height="30" fill="#2563EB" fill-opacity="0.3"/>
  <rect x="0" y="899" width="30" height="1" fill="#2563EB" fill-opacity="0.3"/>
  <rect x="764" y="896" width="4" height="4" fill="#2563EB" fill-opacity="0.7"/>
  <rect x="764" y="870" width="1" height="30" fill="#2563EB" fill-opacity="0.3"/>
  <rect x="738" y="899" width="30" height="1" fill="#2563EB" fill-opacity="0.3"/>
</svg>
